<svg xmlns="http://www.w3.org/2000/svg" xmlns:xlink="http://www.w3.org/1999/xlink" width="220" zoomAndPan="magnify" viewBox="0 0 165 171.750001" height="229" preserveAspectRatio="xMidYMid meet" version="1.0"><defs><clipPath id="db452b7bce"><path d="M 0.121094 0 L 164.878906 0 L 164.878906 171.5 L 0.121094 171.5 Z M 0.121094 0 " clip-rule="nonzero"/></clipPath><clipPath id="06e6e8cf54"><path d="M 68 40.863281 L 70 40.863281 L 70 92 L 68 92 Z M 68 40.863281 " clip-rule="nonzero"/></clipPath><clipPath id="a454e12f92"><path d="M 95 40.863281 L 98 40.863281 L 98 92 L 95 92 Z M 95 40.863281 " clip-rule="nonzero"/></clipPath><clipPath id="7f9cb5901a"><path d="M 30.015625 114 L 39 114 L 39 122 L 30.015625 122 Z M 30.015625 114 " clip-rule="nonzero"/></clipPath><clipPath id="4a20a84480"><path d="M 126 114 L 134.863281 114 L 134.863281 122 L 126 122 Z M 126 114 " clip-rule="nonzero"/></clipPath><clipPath id="6912f05f3c"><path d="M 30.015625 124 L 35 124 L 35 130.734375 L 30.015625 130.734375 Z M 30.015625 124 " clip-rule="nonzero"/></clipPath><clipPath id="3804253883"><path d="M 65 124 L 71 124 L 71 130.734375 L 65 130.734375 Z M 65 124 " clip-rule="nonzero"/></clipPath><clipPath id="e00523d35d"><path d="M 71 124 L 76 124 L 76 130.734375 L 71 130.734375 Z M 71 124 " clip-rule="nonzero"/></clipPath><clipPath id="8f8d4ca13a"><path d="M 90 124 L 95 124 L 95 130.734375 L 90 130.734375 Z M 90 124 " clip-rule="nonzero"/></clipPath><clipPath id="5478afdc8f"><path d="M 130 124 L 134.863281 124 L 134.863281 130 L 130 130 Z M 130 124 " clip-rule="nonzero"/></clipPath></defs><g clip-path="url(#db452b7bce)"><path fill="#ffffff" d="M 0.121094 0 L 164.878906 0 L 164.878906 171.5 L 0.121094 171.5 Z M 0.121094 0 " fill-opacity="0" fill-rule="nonzero"/></g><path fill="#ffffff" d="M 103.460938 87.992188 C 103.460938 88.5 103.457031 89.011719 103.457031 89.519531 C 103.457031 89.90625 103.410156 90.285156 103.34375 90.660156 C 103.203125 91.472656 102.953125 92.253906 102.617188 93.007812 C 102.140625 94.074219 101.511719 95.042969 100.769531 95.945312 C 100.003906 96.882812 99.136719 97.714844 98.195312 98.472656 C 96.757812 99.632812 95.191406 100.585938 93.519531 101.375 C 91.898438 102.140625 90.210938 102.730469 88.464844 103.152344 C 87.902344 103.289062 87.339844 103.40625 86.769531 103.503906 C 86.464844 103.550781 86.15625 103.601562 85.851562 103.644531 C 85.625 103.679688 85.398438 103.703125 85.171875 103.726562 C 84.945312 103.75 84.71875 103.769531 84.492188 103.789062 C 84.109375 103.824219 83.726562 103.84375 83.34375 103.859375 C 83.167969 103.863281 82.988281 103.863281 82.8125 103.867188 C 82.085938 103.871094 81.359375 103.851562 80.632812 103.785156 C 80.324219 103.757812 80.015625 103.734375 79.707031 103.699219 C 79.261719 103.644531 78.816406 103.578125 78.375 103.503906 C 77.667969 103.378906 76.964844 103.230469 76.269531 103.050781 C 74.050781 102.472656 71.945312 101.632812 69.953125 100.503906 C 68.691406 99.789062 67.5 98.96875 66.40625 98.015625 C 65.53125 97.253906 64.726562 96.421875 64.023438 95.496094 C 63.402344 94.679688 62.875 93.804688 62.46875 92.859375 C 62.109375 92.019531 61.859375 91.144531 61.742188 90.238281 C 61.683594 89.789062 61.65625 89.339844 61.65625 88.886719 C 61.65625 86.230469 61.65625 83.574219 61.65625 80.917969 L 61.65625 76.472656 C 61.65625 76.398438 61.65625 76.324219 61.652344 76.253906 C 61.65625 76.203125 61.65625 76.171875 61.652344 76.113281 L 61.652344 72.734375 C 61.660156 72.714844 61.652344 72.695312 61.652344 72.675781 C 61.652344 72.671875 61.652344 72.667969 61.652344 72.667969 C 61.65625 72.621094 61.65625 72.574219 61.65625 72.527344 L 61.65625 68.761719 C 61.65625 68.550781 61.671875 68.339844 61.738281 68.136719 C 61.914062 67.59375 62.289062 67.257812 62.855469 67.144531 C 63.554688 67.003906 64.320312 67.433594 64.507812 68.226562 C 64.527344 68.320312 64.535156 68.421875 64.542969 68.519531 C 64.550781 68.601562 64.546875 68.6875 64.546875 68.777344 L 64.546875 70.628906 C 64.546875 74.058594 64.546875 77.488281 64.546875 80.917969 C 64.546875 83.554688 64.546875 86.1875 64.546875 88.824219 C 64.546875 89.058594 64.546875 89.289062 64.5625 89.519531 C 64.59375 89.957031 64.671875 90.382812 64.789062 90.800781 C 65.003906 91.570312 65.34375 92.289062 65.769531 92.964844 C 66.242188 93.714844 66.800781 94.394531 67.421875 95.027344 C 68.214844 95.832031 69.089844 96.539062 70.027344 97.171875 C 71.433594 98.121094 72.9375 98.878906 74.519531 99.484375 C 75.613281 99.898438 76.726562 100.230469 77.871094 100.480469 C 78.417969 100.601562 78.976562 100.703125 79.535156 100.78125 C 79.910156 100.832031 80.285156 100.875 80.664062 100.910156 C 81.375 100.976562 82.089844 101.011719 82.804688 101 C 83.214844 100.992188 83.625 100.976562 84.035156 100.949219 C 84.460938 100.917969 84.890625 100.875 85.316406 100.820312 C 87.65625 100.515625 89.898438 99.871094 92.042969 98.890625 C 93.261719 98.335938 94.421875 97.679688 95.511719 96.902344 C 96.410156 96.265625 97.242188 95.554688 97.996094 94.75 C 98.585938 94.117188 99.117188 93.433594 99.554688 92.683594 C 99.921875 92.046875 100.214844 91.382812 100.398438 90.667969 C 100.53125 90.171875 100.605469 89.667969 100.601562 89.15625 C 100.601562 89.054688 100.601562 88.957031 100.601562 88.859375 C 100.601562 85.488281 100.601562 82.121094 100.601562 78.75 C 100.601562 76.597656 100.601562 74.445312 100.601562 72.292969 C 100.601562 71.09375 100.601562 69.894531 100.601562 68.695312 C 100.601562 68.660156 100.601562 68.628906 100.601562 68.597656 C 100.605469 68.453125 100.621094 68.308594 100.660156 68.171875 C 100.726562 67.964844 100.816406 67.789062 100.933594 67.636719 C 101.078125 67.46875 101.265625 67.328125 101.472656 67.238281 C 101.480469 67.238281 101.492188 67.230469 101.5 67.230469 C 101.5 67.230469 101.503906 67.230469 101.503906 67.226562 C 101.566406 67.203125 101.628906 67.183594 101.695312 67.167969 C 101.703125 67.167969 101.710938 67.164062 101.71875 67.164062 C 101.746094 67.15625 101.773438 67.152344 101.804688 67.144531 C 102.507812 67.015625 103.25 67.457031 103.433594 68.210938 C 103.441406 68.25 103.453125 68.292969 103.453125 68.335938 C 103.460938 68.503906 103.464844 68.671875 103.464844 68.835938 C 103.464844 68.953125 103.464844 69.070312 103.464844 69.1875 Z M 103.460938 87.992188 " fill-opacity="1" fill-rule="nonzero"/><g clip-path="url(#06e6e8cf54)"><path fill="#ffffff" d="M 69.023438 91.582031 C 68.488281 91.582031 68.054688 91.148438 68.054688 90.613281 L 68.054688 41.851562 C 68.054688 41.316406 68.488281 40.882812 69.023438 40.882812 C 69.554688 40.882812 69.988281 41.316406 69.988281 41.851562 L 69.988281 90.613281 C 69.988281 91.148438 69.554688 91.582031 69.023438 91.582031 " fill-opacity="1" fill-rule="nonzero"/></g><g clip-path="url(#a454e12f92)"><path fill="#ffffff" d="M 96.15625 91.589844 C 95.621094 91.589844 95.1875 91.15625 95.1875 90.621094 L 95.1875 41.851562 C 95.1875 41.3125 95.621094 40.878906 96.15625 40.878906 C 96.691406 40.878906 97.125 41.3125 97.125 41.851562 L 97.125 90.621094 C 97.125 91.15625 96.691406 91.589844 96.15625 91.589844 " fill-opacity="1" fill-rule="nonzero"/></g><path fill="#ffffff" d="M 73.546875 95.53125 C 73.015625 95.53125 72.582031 95.097656 72.582031 94.5625 L 72.582031 74.816406 C 72.582031 74.28125 73.015625 73.847656 73.546875 73.847656 C 74.082031 73.847656 74.515625 74.28125 74.515625 74.816406 L 74.515625 94.5625 C 74.515625 95.097656 74.082031 95.53125 73.546875 95.53125 " fill-opacity="1" fill-rule="nonzero"/><path fill="#ffffff" d="M 91.648438 95.53125 C 91.113281 95.53125 90.679688 95.097656 90.679688 94.5625 L 90.679688 74.816406 C 90.679688 74.28125 91.113281 73.847656 91.648438 73.847656 C 92.179688 73.847656 92.613281 74.28125 92.613281 74.816406 L 92.613281 94.5625 C 92.613281 95.097656 92.179688 95.53125 91.648438 95.53125 " fill-opacity="1" fill-rule="nonzero"/><path fill="#ffffff" d="M 87.125 97.414062 C 86.589844 97.414062 86.15625 96.980469 86.15625 96.445312 L 86.15625 67.207031 C 86.15625 66.671875 86.589844 66.238281 87.125 66.238281 C 87.65625 66.238281 88.089844 66.671875 88.089844 67.207031 L 88.089844 96.445312 C 88.089844 96.980469 87.65625 97.414062 87.125 97.414062 " fill-opacity="1" fill-rule="nonzero"/><path fill="#ffffff" d="M 78.074219 97.414062 C 77.539062 97.414062 77.105469 96.980469 77.105469 96.445312 L 77.105469 67.207031 C 77.105469 66.671875 77.539062 66.238281 78.074219 66.238281 C 78.609375 66.238281 79.042969 66.671875 79.042969 67.207031 L 79.042969 96.445312 C 79.042969 96.980469 78.609375 97.414062 78.074219 97.414062 " fill-opacity="1" fill-rule="nonzero"/><path fill="#ffffff" d="M 82.597656 97.972656 C 82.066406 97.972656 81.632812 97.539062 81.632812 97.007812 L 81.632812 65.460938 C 81.632812 64.925781 82.066406 64.492188 82.597656 64.492188 C 83.132812 64.492188 83.566406 64.925781 83.566406 65.460938 L 83.566406 97.007812 C 83.566406 97.539062 83.132812 97.972656 82.597656 97.972656 " fill-opacity="1" fill-rule="nonzero"/><path fill="#ffffff" d="M 80.582031 60.09375 C 80.53125 60.074219 80.476562 60.054688 80.425781 60.035156 C 80.042969 59.894531 79.664062 59.753906 79.285156 59.613281 C 78.921875 59.480469 78.558594 59.347656 78.199219 59.214844 C 77.863281 59.089844 77.527344 58.964844 77.191406 58.84375 C 76.886719 58.730469 76.578125 58.617188 76.273438 58.5 C 76.164062 58.460938 76.046875 58.421875 75.941406 58.367188 C 75.679688 58.226562 75.558594 58.003906 75.570312 57.707031 C 75.585938 57.40625 75.8125 57.152344 76.109375 57.085938 C 76.273438 57.050781 76.425781 57.082031 76.582031 57.140625 C 76.917969 57.265625 77.253906 57.386719 77.589844 57.511719 C 77.84375 57.605469 78.097656 57.699219 78.347656 57.792969 C 78.605469 57.886719 78.859375 57.980469 79.113281 58.074219 C 79.363281 58.164062 79.617188 58.261719 79.867188 58.351562 C 80.085938 58.433594 80.304688 58.515625 80.523438 58.59375 C 80.761719 58.683594 81 58.769531 81.238281 58.859375 C 81.457031 58.9375 81.675781 59.019531 81.894531 59.101562 C 82.121094 59.183594 82.347656 59.269531 82.574219 59.347656 C 82.589844 59.355469 82.613281 59.355469 82.628906 59.347656 C 82.992188 59.21875 83.355469 59.085938 83.714844 58.949219 C 84.210938 58.769531 84.703125 58.585938 85.199219 58.402344 C 85.449219 58.308594 85.703125 58.21875 85.957031 58.121094 C 86.179688 58.039062 86.402344 57.957031 86.625 57.875 C 86.878906 57.78125 87.132812 57.6875 87.382812 57.59375 C 87.613281 57.507812 87.839844 57.421875 88.070312 57.339844 C 88.28125 57.261719 88.496094 57.183594 88.710938 57.105469 C 89.078125 56.976562 89.472656 57.171875 89.597656 57.539062 C 89.714844 57.882812 89.535156 58.265625 89.191406 58.402344 C 88.898438 58.515625 88.597656 58.621094 88.304688 58.730469 C 88.058594 58.820312 87.8125 58.914062 87.566406 59.003906 C 87.300781 59.101562 87.042969 59.199219 86.777344 59.292969 C 86.554688 59.378906 86.328125 59.460938 86.105469 59.542969 C 85.796875 59.660156 85.484375 59.773438 85.171875 59.886719 C 84.992188 59.953125 84.8125 60.019531 84.632812 60.085938 C 84.628906 60.089844 84.625 60.09375 84.613281 60.097656 C 84.625 60.105469 84.636719 60.109375 84.648438 60.117188 C 84.902344 60.210938 85.160156 60.304688 85.414062 60.398438 C 85.703125 60.503906 85.992188 60.609375 86.277344 60.714844 C 86.496094 60.796875 86.714844 60.878906 86.933594 60.960938 C 87.230469 61.070312 87.417969 61.351562 87.398438 61.667969 C 87.375 61.96875 87.144531 62.230469 86.847656 62.289062 C 86.6875 62.324219 86.539062 62.292969 86.386719 62.234375 C 86.152344 62.148438 85.917969 62.0625 85.683594 61.976562 C 85.464844 61.898438 85.246094 61.816406 85.027344 61.734375 C 84.796875 61.648438 84.566406 61.5625 84.335938 61.480469 C 84.109375 61.394531 83.882812 61.3125 83.65625 61.226562 C 83.429688 61.144531 83.203125 61.0625 82.976562 60.980469 C 82.859375 60.9375 82.746094 60.894531 82.628906 60.847656 C 82.613281 60.84375 82.59375 60.84375 82.578125 60.847656 C 82.3125 60.945312 82.046875 61.046875 81.78125 61.144531 C 81.554688 61.226562 81.328125 61.308594 81.101562 61.394531 C 80.882812 61.472656 80.667969 61.554688 80.449219 61.632812 C 80.195312 61.730469 79.9375 61.824219 79.679688 61.917969 C 79.371094 62.035156 79.0625 62.144531 78.75 62.261719 C 78.339844 62.417969 77.894531 62.164062 77.820312 61.734375 C 77.765625 61.40625 77.949219 61.085938 78.261719 60.96875 C 78.65625 60.820312 79.046875 60.675781 79.4375 60.53125 C 79.8125 60.394531 80.183594 60.257812 80.558594 60.117188 C 80.570312 60.117188 80.578125 60.109375 80.585938 60.105469 C 80.585938 60.101562 80.585938 60.097656 80.585938 60.097656 " fill-opacity="1" fill-rule="nonzero"/><path fill="#ffffff" d="M 80.863281 52.621094 C 80.785156 52.632812 80.714844 52.640625 80.644531 52.65625 C 80.449219 52.6875 80.257812 52.71875 80.066406 52.757812 C 79.738281 52.828125 79.40625 52.898438 79.082031 52.980469 C 78.796875 53.050781 78.515625 53.136719 78.234375 53.214844 C 77.832031 53.328125 77.433594 53.082031 77.351562 52.691406 C 77.273438 52.335938 77.472656 51.980469 77.835938 51.871094 C 78.164062 51.769531 78.492188 51.675781 78.824219 51.59375 C 79.148438 51.511719 79.476562 51.445312 79.804688 51.375 C 80.015625 51.332031 80.230469 51.300781 80.449219 51.265625 C 80.550781 51.246094 80.652344 51.234375 80.753906 51.21875 C 80.757812 51.21875 80.765625 51.214844 80.773438 51.210938 C 80.75 51.195312 80.734375 51.183594 80.714844 51.171875 C 80.367188 50.933594 80.007812 50.714844 79.636719 50.515625 C 79.441406 50.414062 79.3125 50.261719 79.257812 50.050781 C 79.15625 49.671875 79.414062 49.265625 79.800781 49.195312 C 79.980469 49.160156 80.148438 49.195312 80.308594 49.277344 C 80.6875 49.480469 81.058594 49.703125 81.417969 49.945312 C 81.570312 50.046875 81.71875 50.15625 81.867188 50.261719 C 81.875 50.265625 81.886719 50.273438 81.898438 50.28125 L 81.898438 50.230469 C 81.898438 49.886719 81.898438 49.539062 81.898438 49.195312 C 81.898438 49.070312 81.910156 48.949219 81.964844 48.835938 C 82.070312 48.609375 82.246094 48.46875 82.496094 48.429688 C 82.882812 48.367188 83.230469 48.632812 83.292969 49.003906 C 83.304688 49.070312 83.304688 49.132812 83.304688 49.199219 C 83.304688 49.546875 83.304688 49.890625 83.304688 50.234375 L 83.304688 50.28125 C 83.328125 50.265625 83.34375 50.257812 83.359375 50.246094 C 83.851562 49.890625 84.359375 49.5625 84.898438 49.28125 C 85.035156 49.207031 85.179688 49.167969 85.332031 49.1875 C 85.53125 49.203125 85.695312 49.292969 85.820312 49.453125 C 85.902344 49.558594 85.953125 49.679688 85.964844 49.8125 C 85.984375 50.128906 85.851562 50.359375 85.582031 50.507812 C 85.304688 50.660156 85.03125 50.816406 84.769531 50.988281 C 84.65625 51.058594 84.546875 51.132812 84.429688 51.210938 C 84.441406 51.214844 84.449219 51.21875 84.457031 51.222656 C 84.636719 51.25 84.820312 51.273438 85 51.304688 C 85.21875 51.34375 85.441406 51.386719 85.660156 51.429688 C 86.0625 51.515625 86.460938 51.609375 86.851562 51.71875 C 87.039062 51.773438 87.222656 51.824219 87.40625 51.890625 C 87.65625 51.984375 87.808594 52.171875 87.855469 52.441406 C 87.90625 52.722656 87.757812 53.023438 87.5 53.160156 C 87.316406 53.257812 87.125 53.269531 86.929688 53.210938 C 86.457031 53.0625 85.976562 52.9375 85.492188 52.835938 C 85.21875 52.777344 84.941406 52.730469 84.660156 52.679688 C 84.558594 52.660156 84.453125 52.644531 84.34375 52.628906 C 84.347656 52.636719 84.351562 52.644531 84.355469 52.648438 C 84.988281 53.414062 85.574219 54.210938 86.121094 55.035156 C 86.1875 55.136719 86.257812 55.234375 86.300781 55.347656 C 86.441406 55.75 86.214844 56.183594 85.789062 56.273438 C 85.484375 56.335938 85.238281 56.226562 85.058594 55.976562 C 84.925781 55.789062 84.804688 55.59375 84.671875 55.402344 C 84.371094 54.96875 84.058594 54.539062 83.734375 54.121094 C 83.597656 53.949219 83.460938 53.78125 83.324219 53.609375 C 83.320312 53.605469 83.316406 53.601562 83.304688 53.59375 C 83.304688 53.613281 83.304688 53.628906 83.304688 53.640625 C 83.304688 54.179688 83.304688 54.722656 83.304688 55.261719 C 83.304688 55.824219 83.300781 56.386719 83.300781 56.949219 C 83.300781 57.109375 83.304688 57.269531 83.304688 57.433594 C 83.304688 57.542969 83.300781 57.65625 83.261719 57.761719 C 83.167969 58.015625 82.992188 58.171875 82.726562 58.226562 C 82.386719 58.292969 82.0625 58.089844 81.949219 57.78125 C 81.90625 57.671875 81.898438 57.554688 81.898438 57.4375 C 81.898438 56.835938 81.902344 56.234375 81.902344 55.636719 C 81.902344 55.34375 81.902344 55.046875 81.902344 54.757812 C 81.902344 54.382812 81.902344 54.007812 81.898438 53.632812 C 81.898438 53.621094 81.898438 53.609375 81.898438 53.597656 C 81.898438 53.597656 81.894531 53.597656 81.890625 53.597656 C 81.851562 53.644531 81.8125 53.691406 81.773438 53.742188 C 81.429688 54.164062 81.09375 54.597656 80.78125 55.046875 C 80.578125 55.339844 80.375 55.632812 80.175781 55.929688 C 80.066406 56.097656 79.921875 56.222656 79.722656 56.269531 C 79.351562 56.359375 78.96875 56.125 78.882812 55.753906 C 78.832031 55.546875 78.875 55.355469 78.992188 55.179688 C 79.152344 54.933594 79.316406 54.6875 79.484375 54.449219 C 79.835938 53.9375 80.207031 53.441406 80.59375 52.960938 C 80.679688 52.855469 80.761719 52.753906 80.847656 52.648438 C 80.851562 52.644531 80.855469 52.636719 80.863281 52.625 " fill-opacity="1" fill-rule="nonzero"/><g clip-path="url(#7f9cb5901a)"><path fill="#ffffff" d="M 30.015625 118.121094 L 31.296875 118.121094 L 31.296875 119.1875 C 31.296875 120.109375 31.933594 120.753906 32.738281 120.753906 L 35.925781 120.753906 C 36.625 120.753906 37.273438 120.488281 37.332031 119.71875 C 37.308594 119.234375 37.027344 118.871094 36.300781 118.871094 L 32.839844 118.871094 C 32.765625 115.839844 33.800781 114.667969 35.542969 114.667969 L 37.648438 114.667969 L 37.648438 115.960938 L 35.644531 115.960938 C 35 115.960938 34.320312 116.25 34.238281 117.582031 L 36.308594 117.582031 C 37.65625 117.582031 38.613281 118.457031 38.597656 119.613281 C 38.605469 120.902344 37.402344 121.980469 35.992188 121.984375 L 32.664062 121.984375 C 31.164062 121.980469 30.011719 120.832031 30.011719 119.191406 L 30.011719 118.121094 Z M 30.015625 118.121094 " fill-opacity="1" fill-rule="nonzero"/></g><path fill="#ffffff" d="M 43.957031 119.878906 L 43.03125 119.878906 C 42.746094 121.132812 41.695312 121.980469 40.382812 121.980469 L 38.988281 121.980469 L 38.988281 120.746094 L 40.378906 120.746094 C 41.183594 120.746094 41.828125 120.097656 41.828125 119.183594 L 41.828125 114.679688 L 43.105469 114.679688 L 43.105469 118.664062 L 43.957031 118.664062 Z M 43.957031 119.878906 " fill-opacity="1" fill-rule="nonzero"/><path fill="#ffffff" d="M 43.777344 118.664062 L 47.355469 118.664062 L 47.355469 119.878906 L 43.777344 119.878906 Z M 43.777344 118.664062 " fill-opacity="1" fill-rule="nonzero"/><path fill="#ffffff" d="M 47.273438 118.664062 L 50.226562 118.664062 L 50.226562 119.878906 L 47.273438 119.878906 Z M 47.273438 118.664062 " fill-opacity="1" fill-rule="nonzero"/><path fill="#ffffff" d="M 48.90625 118.664062 L 51.859375 118.664062 L 51.859375 119.878906 L 48.90625 119.878906 Z M 48.90625 118.664062 " fill-opacity="1" fill-rule="nonzero"/><path fill="#ffffff" d="M 49.660156 118.664062 L 52.617188 118.664062 L 52.617188 119.878906 L 49.660156 119.878906 Z M 49.660156 118.664062 " fill-opacity="1" fill-rule="nonzero"/><path fill="#ffffff" d="M 51.296875 118.664062 L 54.25 118.664062 L 54.25 119.878906 L 51.296875 119.878906 Z M 51.296875 118.664062 " fill-opacity="1" fill-rule="nonzero"/><path fill="#ffffff" d="M 54.164062 118.664062 L 59.492188 118.664062 L 59.492188 119.878906 L 54.164062 119.878906 Z M 54.164062 118.664062 " fill-opacity="1" fill-rule="nonzero"/><path fill="#ffffff" d="M 67.046875 118.664062 L 67.046875 119.878906 L 59.246094 119.878906 L 59.246094 118.664062 L 60.949219 118.664062 C 59.878906 117.105469 60.832031 114.507812 63.273438 114.507812 C 64.714844 114.507812 66.085938 115.601562 66.113281 117.277344 L 66.117188 118.664062 Z M 61.492188 113.0625 C 61.492188 112.699219 61.796875 112.402344 62.203125 112.402344 C 62.605469 112.402344 62.910156 112.699219 62.910156 113.0625 C 62.910156 113.425781 62.605469 113.722656 62.203125 113.722656 C 61.796875 113.722656 61.492188 113.425781 61.492188 113.0625 M 64.84375 118.664062 L 64.835938 117.003906 C 64.734375 116.230469 64.070312 115.636719 63.269531 115.636719 C 62.359375 115.636719 61.632812 116.367188 61.632812 117.277344 C 61.632812 117.882812 61.96875 118.402344 62.449219 118.664062 Z M 63.640625 113.0625 C 63.640625 112.699219 63.949219 112.402344 64.351562 112.402344 C 64.757812 112.402344 65.0625 112.699219 65.0625 113.0625 C 65.0625 113.425781 64.757812 113.722656 64.351562 113.722656 C 63.949219 113.722656 63.640625 113.425781 63.640625 113.0625 " fill-opacity="1" fill-rule="nonzero"/><path fill="#ffffff" d="M 67.722656 118.664062 L 67.722656 111.582031 L 68.992188 111.582031 L 68.992188 119.878906 L 66.824219 119.878906 L 66.824219 118.664062 Z M 67.722656 118.664062 " fill-opacity="1" fill-rule="nonzero"/><path fill="#ffffff" d="M 69.851562 111.582031 L 71.125 111.582031 L 71.125 119.878906 L 69.851562 119.878906 Z M 69.851562 111.582031 " fill-opacity="1" fill-rule="nonzero"/><path fill="#ffffff" d="M 75.46875 118.742188 C 74.964844 117.492188 75.664062 115.140625 78.097656 115.140625 C 79.671875 115.140625 80.921875 116.367188 80.921875 117.910156 C 80.921875 119.453125 79.671875 120.675781 78.097656 120.675781 C 77.3125 120.675781 76.605469 120.371094 76.097656 119.871094 C 75.125 119.894531 74.597656 120.734375 74.597656 121.980469 L 73.375 121.980469 C 73.375 120.132812 74.152344 119.023438 75.472656 118.742188 M 79.71875 117.90625 C 79.71875 116.996094 79 116.261719 78.097656 116.261719 C 77.195312 116.261719 76.472656 116.996094 76.472656 117.90625 C 76.472656 118.820312 77.191406 119.542969 78.097656 119.542969 C 79.003906 119.542969 79.71875 118.8125 79.71875 117.90625 " fill-opacity="1" fill-rule="nonzero"/><path fill="#ffffff" d="M 83.515625 110.679688 L 83.515625 111.261719 L 81.695312 111.261719 L 81.695312 110.679688 L 81.945312 110.679688 C 81.847656 110.191406 82.214844 109.726562 82.753906 109.726562 C 83.101562 109.726562 83.421875 109.945312 83.527344 110.265625 L 82.992188 110.480469 C 82.972656 110.355469 82.871094 110.269531 82.753906 110.269531 C 82.613281 110.269531 82.511719 110.382812 82.511719 110.519531 C 82.511719 110.582031 82.53125 110.636719 82.566406 110.679688 Z M 81.972656 111.582031 L 83.246094 111.582031 L 83.246094 119.878906 L 81.972656 119.878906 Z M 81.972656 111.582031 " fill-opacity="1" fill-rule="nonzero"/><path fill="#ffffff" d="M 86.085938 117.417969 C 86.089844 115.863281 87.242188 114.671875 88.855469 114.671875 L 90.285156 114.671875 L 90.285156 114.386719 L 91.558594 114.386719 L 91.558594 118.660156 L 92.640625 118.660156 L 92.640625 119.875 L 86.085938 119.875 Z M 86.894531 113.226562 C 86.894531 112.863281 87.199219 112.570312 87.601562 112.570312 C 88.007812 112.570312 88.3125 112.863281 88.3125 113.226562 C 88.3125 113.59375 88.007812 113.886719 87.601562 113.886719 C 87.199219 113.886719 86.894531 113.59375 86.894531 113.226562 M 90.285156 118.664062 L 90.285156 115.960938 L 88.855469 115.960938 C 87.949219 115.960938 87.308594 116.613281 87.308594 117.425781 L 87.308594 118.664062 Z M 89.042969 113.226562 C 89.042969 112.863281 89.347656 112.570312 89.753906 112.570312 C 90.15625 112.570312 90.460938 112.863281 90.460938 113.226562 C 90.460938 113.59375 90.15625 113.886719 89.753906 113.886719 C 89.347656 113.886719 89.042969 113.59375 89.042969 113.226562 " fill-opacity="1" fill-rule="nonzero"/><path fill="#ffffff" d="M 91.5 118.664062 L 94.453125 118.664062 L 94.453125 119.878906 L 91.5 119.878906 Z M 91.5 118.664062 " fill-opacity="1" fill-rule="nonzero"/><path fill="#ffffff" d="M 94.367188 118.664062 L 97.320312 118.664062 L 97.320312 119.878906 L 94.367188 119.878906 Z M 94.367188 118.664062 " fill-opacity="1" fill-rule="nonzero"/><path fill="#ffffff" d="M 97.234375 118.664062 L 100.1875 118.664062 L 100.1875 119.878906 L 97.234375 119.878906 Z M 97.234375 118.664062 " fill-opacity="1" fill-rule="nonzero"/><path fill="#ffffff" d="M 100.101562 118.664062 L 103.058594 118.664062 L 103.058594 119.878906 L 100.101562 119.878906 Z M 100.101562 118.664062 " fill-opacity="1" fill-rule="nonzero"/><path fill="#ffffff" d="M 102.96875 118.664062 L 107.355469 118.664062 L 107.355469 119.878906 L 102.96875 119.878906 Z M 102.96875 118.664062 " fill-opacity="1" fill-rule="nonzero"/><path fill="#ffffff" d="M 114.367188 119.878906 L 106.757812 119.878906 L 106.757812 118.664062 L 108.519531 118.664062 C 107.449219 117.105469 108.402344 114.507812 110.84375 114.507812 C 112 114.507812 113.023438 115.113281 113.433594 116.238281 L 112.300781 116.703125 C 112.132812 115.996094 111.59375 115.636719 110.835938 115.636719 C 109.933594 115.636719 109.207031 116.367188 109.207031 117.277344 C 109.207031 117.882812 109.539062 118.402344 110.019531 118.664062 L 114.367188 118.664062 Z M 114.367188 119.878906 " fill-opacity="1" fill-rule="nonzero"/><path fill="#ffffff" d="M 114.144531 118.664062 L 115.238281 118.664062 C 115.125 118.441406 115.050781 118.183594 115.050781 117.910156 C 115.050781 116.363281 116.300781 115.140625 117.882812 115.140625 C 119.464844 115.140625 120.703125 116.367188 120.703125 117.910156 C 120.703125 119.453125 119.457031 120.675781 117.882812 120.675781 C 117.097656 120.675781 116.390625 120.371094 115.882812 119.878906 L 114.144531 119.878906 Z M 117.882812 119.542969 C 118.789062 119.542969 119.5 118.816406 119.5 117.910156 C 119.5 117.003906 118.789062 116.265625 117.882812 116.265625 C 116.980469 116.265625 116.253906 116.996094 116.253906 117.910156 C 116.253906 118.820312 116.976562 119.542969 117.882812 119.542969 " fill-opacity="1" fill-rule="nonzero"/><path fill="#ffffff" d="M 123.730469 119.878906 L 121.566406 119.878906 L 121.566406 111.582031 L 122.839844 111.582031 L 122.839844 118.664062 L 123.730469 118.664062 Z M 123.730469 119.878906 " fill-opacity="1" fill-rule="nonzero"/><path fill="#ffffff" d="M 123.578125 118.664062 L 127.152344 118.664062 L 127.152344 119.878906 L 123.578125 119.878906 Z M 123.578125 118.664062 " fill-opacity="1" fill-rule="nonzero"/><g clip-path="url(#4a20a84480)"><path fill="#ffffff" d="M 126.757812 118.664062 L 133.742188 118.664062 L 133.742188 117.425781 C 133.742188 116.613281 133.097656 115.960938 132.1875 115.960938 L 127.960938 115.960938 L 127.960938 114.671875 L 132.191406 114.671875 C 133.804688 114.671875 134.960938 115.863281 134.960938 117.417969 L 134.960938 119.878906 L 126.757812 119.878906 L 126.757812 118.660156 Z M 129.628906 121.007812 C 129.628906 120.640625 129.933594 120.347656 130.339844 120.347656 C 130.742188 120.347656 131.050781 120.640625 131.050781 121.007812 C 131.050781 121.371094 130.742188 121.664062 130.339844 121.664062 C 129.933594 121.664062 129.628906 121.371094 129.628906 121.007812 " fill-opacity="1" fill-rule="nonzero"/></g><g clip-path="url(#6912f05f3c)"><path fill="#ffffff" d="M 30.039062 128 L 30.039062 124.832031 L 30.980469 124.832031 L 30.980469 128 C 30.980469 128.664062 31.449219 129.136719 32.042969 129.136719 C 32.636719 129.136719 33.109375 128.664062 33.109375 128 L 33.109375 124.832031 L 34.050781 124.832031 L 34.050781 128 C 34.050781 129.1875 33.179688 130.035156 32.046875 130.035156 C 30.910156 130.035156 30.042969 129.1875 30.042969 128 " fill-opacity="1" fill-rule="nonzero"/></g><path fill="#ffffff" d="M 40.792969 129.925781 L 39.859375 129.925781 L 39.859375 127.019531 L 38.160156 129.839844 L 38.15625 129.839844 L 36.457031 127.019531 L 36.457031 129.925781 L 35.519531 129.925781 L 35.519531 124.773438 L 35.875 124.773438 L 38.15625 128.371094 L 40.4375 124.773438 L 40.792969 124.773438 Z M 40.792969 129.925781 " fill-opacity="1" fill-rule="nonzero"/><path fill="#ffffff" d="M 47.585938 129.925781 L 46.652344 129.925781 L 46.652344 127.019531 L 44.953125 129.839844 L 44.949219 129.839844 L 43.25 127.019531 L 43.25 129.925781 L 42.3125 129.925781 L 42.3125 124.773438 L 42.667969 124.773438 L 44.953125 128.371094 L 47.230469 124.773438 L 47.585938 124.773438 Z M 47.585938 129.925781 " fill-opacity="1" fill-rule="nonzero"/><path fill="#ffffff" d="M 52.507812 129.203125 L 52.191406 129.925781 L 51.171875 129.925781 L 53.515625 124.777344 L 53.929688 124.777344 L 56.277344 129.925781 L 55.253906 129.925781 L 54.941406 129.203125 Z M 53.726562 126.429688 L 52.8125 128.5 L 54.636719 128.5 Z M 53.726562 126.429688 " fill-opacity="1" fill-rule="nonzero"/><path fill="#ffffff" d="M 60.582031 129.925781 L 57.375 129.925781 L 57.375 124.832031 L 58.308594 124.832031 L 58.308594 129.042969 L 60.582031 129.042969 Z M 60.582031 129.925781 " fill-opacity="1" fill-rule="nonzero"/><path fill="#ffffff" d="M 61.425781 127.042969 L 64.035156 127.042969 L 64.035156 127.820312 L 61.425781 127.820312 Z M 61.425781 127.042969 " fill-opacity="1" fill-rule="nonzero"/><g clip-path="url(#3804253883)"><path fill="#ffffff" d="M 67.769531 124.730469 C 69.292969 124.730469 70.488281 125.894531 70.488281 127.386719 C 70.488281 128.289062 70.042969 129.070312 69.347656 129.546875 C 69.671875 129.675781 70.050781 129.761719 70.484375 129.769531 L 70.175781 130.613281 C 69.394531 130.570312 68.878906 130.261719 68.476562 129.890625 C 68.253906 129.976562 68.019531 130.023438 67.765625 130.023438 C 66.246094 130.023438 65.054688 128.863281 65.054688 127.386719 C 65.054688 125.910156 66.25 124.730469 67.769531 124.730469 M 67.769531 129.121094 C 68.703125 129.121094 69.542969 128.398438 69.542969 127.378906 C 69.542969 126.359375 68.761719 125.625 67.769531 125.625 C 66.777344 125.625 65.996094 126.402344 65.996094 127.378906 C 65.996094 128.359375 66.78125 129.121094 67.769531 129.121094 " fill-opacity="1" fill-rule="nonzero"/></g><g clip-path="url(#e00523d35d)"><path fill="#ffffff" d="M 71.726562 128 L 71.726562 124.832031 L 72.667969 124.832031 L 72.667969 128 C 72.667969 128.664062 73.132812 129.136719 73.730469 129.136719 C 74.324219 129.136719 74.792969 128.664062 74.792969 128 L 74.792969 124.832031 L 75.734375 124.832031 L 75.734375 128 C 75.734375 129.1875 74.863281 130.035156 73.730469 130.035156 C 72.597656 130.035156 71.726562 129.1875 71.726562 128 " fill-opacity="1" fill-rule="nonzero"/></g><path fill="#ffffff" d="M 77.207031 124.832031 L 78.929688 124.832031 C 79.964844 124.832031 80.742188 125.570312 80.742188 126.46875 C 80.742188 127.117188 80.339844 127.644531 79.773438 127.851562 L 81.15625 129.925781 L 80.089844 129.925781 L 78.964844 127.898438 L 78.144531 127.898438 L 78.144531 129.925781 L 77.210938 129.925781 Z M 78.921875 127.304688 C 79.394531 127.304688 79.796875 126.964844 79.796875 126.507812 C 79.796875 126.054688 79.390625 125.683594 78.921875 125.683594 L 78.140625 125.683594 L 78.140625 127.304688 Z M 78.921875 127.304688 " fill-opacity="1" fill-rule="nonzero"/><path fill="#ffffff" d="M 83.175781 129.203125 L 82.859375 129.925781 L 81.835938 129.925781 L 84.179688 124.777344 L 84.597656 124.777344 L 86.941406 129.925781 L 85.917969 129.925781 L 85.605469 129.203125 L 83.171875 129.203125 Z M 84.390625 126.429688 L 83.476562 128.5 L 85.300781 128.5 Z M 84.390625 126.429688 " fill-opacity="1" fill-rule="nonzero"/><g clip-path="url(#8f8d4ca13a)"><path fill="#ffffff" d="M 90.480469 128 L 90.480469 124.832031 L 91.421875 124.832031 L 91.421875 128 C 91.421875 128.664062 91.890625 129.136719 92.484375 129.136719 C 93.078125 129.136719 93.550781 128.664062 93.550781 128 L 93.550781 124.832031 L 94.492188 124.832031 L 94.492188 128 C 94.492188 129.1875 93.621094 130.035156 92.484375 130.035156 C 91.351562 130.035156 90.484375 129.1875 90.484375 128 " fill-opacity="1" fill-rule="nonzero"/></g><path fill="#ffffff" d="M 100.238281 129.980469 L 99.972656 129.980469 L 96.894531 126.679688 L 96.894531 129.929688 L 95.960938 129.929688 L 95.960938 124.777344 L 96.230469 124.777344 L 99.300781 128.074219 L 99.300781 124.824219 L 100.238281 124.824219 Z M 100.238281 129.980469 " fill-opacity="1" fill-rule="nonzero"/><path fill="#ffffff" d="M 101.761719 124.832031 L 102.699219 124.832031 L 102.699219 129.925781 L 101.761719 129.925781 Z M 101.761719 124.832031 " fill-opacity="1" fill-rule="nonzero"/><path fill="#ffffff" d="M 106.507812 129.980469 L 106.101562 129.980469 L 103.792969 124.832031 L 104.800781 124.832031 L 106.300781 128.300781 L 107.808594 124.832031 L 108.828125 124.832031 Z M 106.507812 129.980469 " fill-opacity="1" fill-rule="nonzero"/><path fill="#ffffff" d="M 110.84375 126.925781 L 112.734375 126.925781 L 112.734375 127.726562 L 110.84375 127.726562 L 110.84375 129.042969 L 113.078125 129.042969 L 113.078125 129.925781 L 109.921875 129.925781 L 109.921875 124.832031 L 113.078125 124.832031 L 113.078125 125.707031 L 110.84375 125.707031 Z M 110.84375 126.925781 " fill-opacity="1" fill-rule="nonzero"/><path fill="#ffffff" d="M 114.453125 124.832031 L 116.175781 124.832031 C 117.210938 124.832031 117.992188 125.570312 117.992188 126.46875 C 117.992188 127.117188 117.585938 127.644531 117.023438 127.851562 L 118.40625 129.925781 L 117.339844 129.925781 L 116.214844 127.898438 L 115.394531 127.898438 L 115.394531 129.925781 L 114.457031 129.925781 Z M 116.167969 127.304688 C 116.640625 127.304688 117.046875 126.964844 117.046875 126.507812 C 117.046875 126.054688 116.636719 125.683594 116.167969 125.683594 L 115.386719 125.683594 L 115.386719 127.304688 Z M 116.167969 127.304688 " fill-opacity="1" fill-rule="nonzero"/><path fill="#ffffff" d="M 119.210938 129.039062 L 119.789062 128.484375 C 120.007812 128.863281 120.5 129.125 120.996094 129.125 C 121.492188 129.125 121.917969 128.878906 121.917969 128.5 C 121.917969 128.0625 121.285156 127.820312 120.699219 127.59375 C 120.050781 127.339844 119.421875 126.964844 119.421875 126.199219 C 119.421875 125.375 120.195312 124.761719 121.125 124.761719 C 121.90625 124.761719 122.460938 125.179688 122.644531 125.652344 L 122.082031 126.164062 C 121.921875 125.832031 121.496094 125.625 121.125 125.625 C 120.699219 125.625 120.351562 125.886719 120.351562 126.222656 C 120.351562 126.605469 120.832031 126.738281 121.441406 126.972656 C 122.203125 127.277344 122.855469 127.691406 122.855469 128.476562 C 122.855469 129.398438 121.976562 129.988281 121.003906 129.988281 C 120.164062 129.988281 119.433594 129.570312 119.210938 129.035156 " fill-opacity="1" fill-rule="nonzero"/><path fill="#ffffff" d="M 124.078125 124.832031 L 125.015625 124.832031 L 125.015625 129.925781 L 124.078125 129.925781 Z M 124.078125 124.832031 " fill-opacity="1" fill-rule="nonzero"/><path fill="#ffffff" d="M 128.5 125.710938 L 128.5 129.925781 L 127.566406 129.925781 L 127.566406 125.710938 L 126.1875 125.710938 L 126.1875 124.832031 L 129.875 124.832031 L 129.875 125.710938 Z M 128.5 125.710938 " fill-opacity="1" fill-rule="nonzero"/><g clip-path="url(#5478afdc8f)"><path fill="#ffffff" d="M 130.621094 124.832031 L 131.675781 124.832031 L 132.796875 126.757812 L 133.925781 124.832031 L 134.980469 124.832031 L 133.261719 127.746094 L 133.261719 129.925781 L 132.335938 129.925781 L 132.335938 127.746094 Z M 130.621094 124.832031 " fill-opacity="1" fill-rule="nonzero"/></g></svg>
