<svg preserveAspectRatio="none" width="100%" height="100%" overflow="visible" style="display: block;" viewBox="0 0 221 299" fill="none" xmlns="http://www.w3.org/2000/svg">
<g id="stars">
<path id="Star 1" d="M110 104C110 104 107.793 124.6 99.1964 133.196C90.5997 141.793 70 144 70 144C70 144 90.5997 146.207 99.1964 154.804C107.793 163.4 110 184 110 184C110 184 112.207 163.4 120.804 154.804C129.4 146.207 150 144 150 144C150 144 129.4 141.793 120.804 133.196C112.207 124.6 110 104 110 104Z" fill="white" fill-opacity="0.25"/>
<path id="Star 4" d="M40 152C40 152 37.793 172.6 29.1964 181.196C20.5997 189.793 0 192 0 192C0 192 20.5997 194.207 29.1964 202.804C37.793 211.4 40 232 40 232C40 232 42.207 211.4 50.8036 202.804C59.4003 194.207 80 192 80 192C80 192 59.4003 189.793 50.8036 181.196C42.207 172.6 40 152 40 152Z" fill="white" fill-opacity="0.1"/>
<path id="Star 5" d="M181 181C181 181 178.793 211.385 170.196 224.065C161.6 236.745 141 240 141 240C141 240 161.6 243.255 170.196 255.935C178.793 268.615 181 299 181 299C181 299 183.207 268.615 191.804 255.935C200.4 243.255 221 240 221 240C221 240 200.4 236.745 191.804 224.065C183.207 211.385 181 181 181 181Z" fill="white" fill-opacity="0.1"/>
<path id="Star 2" d="M49.5 0C49.5 0 47.8172 30.3846 41.2622 43.0646C34.7073 55.7447 19 59 19 59C19 59 34.7073 62.2553 41.2622 74.9354C47.8172 87.6154 49.5 118 49.5 118C49.5 118 51.1828 87.6154 57.7378 74.9354C64.2927 62.2553 80 59 80 59C80 59 64.2927 55.7447 57.7378 43.0646C51.1828 30.3846 49.5 0 49.5 0Z" fill="white" fill-opacity="0.1"/>
<path id="Star 3" d="M180.5 79C180.5 79 178.817 94.4498 172.262 100.897C165.707 107.345 150 109 150 109C150 109 165.707 110.655 172.262 117.103C178.817 123.55 180.5 139 180.5 139C180.5 139 182.183 123.55 188.738 117.103C195.293 110.655 211 109 211 109C211 109 195.293 107.345 188.738 100.897C182.183 94.4498 180.5 79 180.5 79Z" fill="white" fill-opacity="0.1"/>
</g>
</svg>
