<svg preserveAspectRatio="none" width="100%" height="100%" overflow="visible" style="display: block;" viewBox="0 0 136 300" fill="none" xmlns="http://www.w3.org/2000/svg">
<g id="stars">
<path id="Star 1" d="M67.6923 104.348C67.6923 104.348 66.3341 125.016 61.0439 133.642C55.7537 142.267 43.0769 144.482 43.0769 144.482C43.0769 144.482 55.7537 146.696 61.0439 155.321C66.3341 163.947 67.6923 184.615 67.6923 184.615C67.6923 184.615 69.0505 163.947 74.3407 155.321C79.6309 146.696 92.3077 144.482 92.3077 144.482C92.3077 144.482 79.6309 142.267 74.3407 133.642C69.0505 125.016 67.6923 104.348 67.6923 104.348Z" fill="white" fill-opacity="0.15"/>
<path id="Star 4" d="M24.6154 152.508C24.6154 152.508 23.2572 173.177 17.967 181.802C12.6768 190.428 2.86102e-06 192.642 2.86102e-06 192.642C2.86102e-06 192.642 12.6768 194.857 17.967 203.482C23.2572 212.107 24.6154 232.776 24.6154 232.776C24.6154 232.776 25.9735 212.107 31.2638 203.482C36.554 194.857 49.2308 192.642 49.2308 192.642C49.2308 192.642 36.554 190.428 31.2638 181.802C25.9735 173.177 24.6154 152.508 24.6154 152.508Z" fill="white" fill-opacity="0.05"/>
<path id="Star 5" d="M111.385 181.605C111.385 181.605 110.026 212.092 104.736 224.814C99.446 237.536 86.7692 240.803 86.7692 240.803C86.7692 240.803 99.446 244.069 104.736 256.791C110.026 269.514 111.385 300 111.385 300C111.385 300 112.743 269.514 118.033 256.791C123.323 244.069 136 240.803 136 240.803C136 240.803 123.323 237.536 118.033 224.814C112.743 212.092 111.385 181.605 111.385 181.605Z" fill="white" fill-opacity="0.05"/>
<path id="Star 2" d="M30.4615 0C30.4615 0 29.4259 30.4862 25.3921 43.2087C21.3583 55.9311 11.6923 59.1973 11.6923 59.1973C11.6923 59.1973 21.3583 62.4636 25.3921 75.186C29.4259 87.9084 30.4615 118.395 30.4615 118.395C30.4615 118.395 31.4971 87.9084 35.5309 75.186C39.5647 62.4636 49.2308 59.1973 49.2308 59.1973C49.2308 59.1973 39.5647 55.9311 35.5309 43.2087C31.4971 30.4862 30.4615 0 30.4615 0Z" fill="white" fill-opacity="0.05"/>
<path id="Star 3" d="M111.077 79.2642C111.077 79.2642 110.041 94.7657 106.008 101.235C101.974 107.704 92.3077 109.365 92.3077 109.365C92.3077 109.365 101.974 111.025 106.008 117.494C110.041 123.963 111.077 139.465 111.077 139.465C111.077 139.465 112.113 123.963 116.146 117.494C120.18 111.025 129.846 109.365 129.846 109.365C129.846 109.365 120.18 107.704 116.146 101.235C112.113 94.7657 111.077 79.2642 111.077 79.2642Z" fill="white" fill-opacity="0.05"/>
</g>
</svg>
