<svg preserveAspectRatio="none" width="100%" height="100%" overflow="visible" style="display: block;" viewBox="0 0 136 296" fill="none" xmlns="http://www.w3.org/2000/svg">
<g id="stars">
<path id="Star 1" d="M67.6923 102.957C67.6923 102.957 66.3341 123.35 61.0439 131.86C55.7537 140.37 43.0769 142.555 43.0769 142.555C43.0769 142.555 55.7537 144.74 61.0439 153.25C66.3341 161.761 67.6923 182.154 67.6923 182.154C67.6923 182.154 69.0505 161.761 74.3407 153.25C79.6309 144.74 92.3077 142.555 92.3077 142.555C92.3077 142.555 79.6309 140.37 74.3407 131.86C69.0505 123.35 67.6923 102.957 67.6923 102.957Z" fill="white" fill-opacity="0.15"/>
<path id="Star 4" d="M24.6154 150.475C24.6154 150.475 23.2572 170.868 17.967 179.378C12.6768 187.889 0 190.074 0 190.074C0 190.074 12.6768 192.258 17.967 200.769C23.2572 209.279 24.6154 229.672 24.6154 229.672C24.6154 229.672 25.9735 209.279 31.2638 200.769C36.554 192.258 49.2308 190.074 49.2308 190.074C49.2308 190.074 36.554 187.889 31.2638 179.378C25.9735 170.868 24.6154 150.475 24.6154 150.475Z" fill="white" fill-opacity="0.05"/>
<path id="Star 5" d="M111.385 179.184C111.385 179.184 110.026 209.264 104.736 221.817C99.446 234.369 86.7692 237.592 86.7692 237.592C86.7692 237.592 99.446 240.815 104.736 253.367C110.026 265.92 111.385 296 111.385 296C111.385 296 112.743 265.92 118.033 253.367C123.323 240.815 136 237.592 136 237.592C136 237.592 123.323 234.369 118.033 221.817C112.743 209.264 111.385 179.184 111.385 179.184Z" fill="white" fill-opacity="0.05"/>
<path id="Star 2" d="M30.4615 0C30.4615 0 29.4259 30.0798 25.3921 42.6326C21.3583 55.1854 11.6923 58.408 11.6923 58.408C11.6923 58.408 21.3583 61.6307 25.3921 74.1835C29.4259 86.7363 30.4615 116.816 30.4615 116.816C30.4615 116.816 31.4971 86.7363 35.5309 74.1835C39.5647 61.6307 49.2308 58.408 49.2308 58.408C49.2308 58.408 39.5647 55.1854 35.5309 42.6326C31.4971 30.0798 30.4615 0 30.4615 0Z" fill="white" fill-opacity="0.05"/>
<path id="Star 3" d="M111.077 78.2074C111.077 78.2074 110.041 93.5022 106.008 99.8849C101.974 106.268 92.3077 107.906 92.3077 107.906C92.3077 107.906 101.974 109.545 106.008 115.928C110.041 122.311 111.077 137.605 111.077 137.605C111.077 137.605 112.113 122.311 116.146 115.928C120.18 109.545 129.846 107.906 129.846 107.906C129.846 107.906 120.18 106.268 116.146 99.8849C112.113 93.5022 111.077 78.2074 111.077 78.2074Z" fill="white" fill-opacity="0.05"/>
</g>
</svg>
