<svg xmlns="http://www.w3.org/2000/svg" width="64" height="64" viewBox="0 0 64 64" fill="none"><rect width="64" height="64" rx="14.08" fill="#006471"/><g transform="translate(5.02 15.67) scale(0.9)"><path fill="#ffffff" d="M9.08333 9.08334C10.3333 9.08334 11.5 9.32292 12.5833 9.79167C13.6771 10.2656 14.6458 10.9271 15.4792 11.7708C16.3125 12.6042 16.9583 13.5729 17.4167 14.6667C17.8854 15.75 18.125 16.9167 18.125 18.1667V27.2292H0L9.04167 18.1667H9.08333V9.08334Z"/><path fill="#ffffff" d="M20 9.08334L29.0417 7.62939e-06V27.2292H20V9.08334Z"/><path fill="#ffffff" d="M39.9538 9.08334C41.2142 9.08334 42.3965 9.32292 43.4954 9.79167C44.5892 10.2656 45.5579 10.9271 46.3913 11.7708C47.2246 12.6042 47.8704 13.5729 48.3288 14.6667C48.7975 15.75 49.0371 16.9167 49.0371 18.1667V27.2292L39.9538 36.2917V27.2292H30.9121V18.1667C30.9121 16.9167 31.1413 15.75 31.5996 14.6667C32.0684 13.5729 32.7246 12.6042 33.5579 11.7708C34.3913 10.9271 35.3548 10.2656 36.4538 9.79167C37.5475 9.32292 38.7142 9.08334 39.9538 9.08334Z"/><path fill="#ffffff" d="M50.9121 18.1667L59.9538 9.08334V27.2292L50.9121 36.2917V18.1667Z"/></g></svg>